# xmcd
# Track frame offsets:
# 150
# 14968
# 28749
# 45385
# 67260
# 88607
# 101409
# 117102
# 154822
#
# Disc length: 2308 seconds
# Revision: 0
# Processed by: cddbd v1.5.2PL0 Copyright (c) Steve Scherf et al.
# Submitted via: VisiTrax 2.11.3.279 - For more info visit www.synapsa.com
#
DISCID=74090209
DTITLE=Jörg Danielsen - Live Aus Dem Jazzland
DYEAR=1900
DGENRE=
TTITLE0=My Babe
TTITLE1=Hide Away
TTITLE2=Want To Meet My Darling
TTITLE3=Chase Your Troubles Away
TTITLE4=Ice Cream Man
TTITLE5=Black Tornado
TTITLE6=Backwoodsman Blues
TTITLE7=Good Old Beer
TTITLE8=Jelly Beans
EXTD=
EXTT0=
EXTT1=
EXTT2=
EXTT3=
EXTT4=
EXTT5=
EXTT6=
EXTT7=
EXTT8=
PLAYORDER=
